<svg width="323" height="321" viewBox="0 0 323 321" fill="none" xmlns="http://www.w3.org/2000/svg">
<rect x="50.8501" y="63.6991" width="223.476" height="167.321" fill="#3A62AB"/>
<rect x="96.6914" y="238.755" width="131.794" height="29.7968" fill="#3A62AB"/>
<rect x="65.7485" y="276.288" width="193.966" height="43.8357" fill="#3A62AB"/>
<ellipse cx="113.166" cy="132.891" rx="16.4742" ry="15.9012" fill="#888888"/>
<ellipse cx="212.011" cy="132.891" rx="16.4742" ry="15.9012" fill="#888888"/>
<ellipse cx="113.022" cy="133.034" rx="10.3143" ry="10.0278" fill="white"/>
<ellipse cx="211.868" cy="133.034" rx="10.3143" ry="10.0278" fill="white"/>
<rect x="248.254" y="147.359" width="15.4714" height="49.8524" transform="rotate(-90 248.254 147.359)" fill="#3A62AB"/>
<rect x="27.9294" y="147.359" width="15.4714" height="49.8524" transform="rotate(-90 27.9294 147.359)" fill="#3A62AB"/>
<rect x="154.853" y="29.6046" width="15.4714" height="49.8524" fill="#3A62AB"/>
<ellipse cx="162.732" cy="16.5686" rx="16.4742" ry="15.9012" fill="url(#paint0_linear)"/>
<ellipse cx="16.6124" cy="139.48" rx="16.4742" ry="15.9012" fill="url(#paint1_linear)"/>
<ellipse cx="305.699" cy="139.48" rx="16.4742" ry="15.9012" fill="url(#paint2_linear)"/>
<defs>
<linearGradient id="paint0_linear" x1="162.732" y1="0.667359" x2="162.732" y2="32.4698" gradientUnits="userSpaceOnUse">
<stop stop-color="#3A62AB"/>
<stop offset="1" stop-color="#6E96DF"/>
</linearGradient>
<linearGradient id="paint1_linear" x1="16.6124" y1="123.579" x2="16.6124" y2="155.382" gradientUnits="userSpaceOnUse">
<stop stop-color="#3A62AB"/>
<stop offset="1" stop-color="#6E96DF"/>
</linearGradient>
<linearGradient id="paint2_linear" x1="305.699" y1="123.579" x2="305.699" y2="155.382" gradientUnits="userSpaceOnUse">
<stop stop-color="#3A62AB"/>
<stop offset="1" stop-color="#6E96DF"/>
</linearGradient>
</defs>
</svg>
