<svg width="323" height="327" viewBox="0 0 323 327" fill="none" xmlns="http://www.w3.org/2000/svg">
<rect x="50.9463" y="63.6991" width="223.476" height="167.321" rx="24" fill="#3A62AB"/>
<rect x="97.9337" y="238.755" width="131.794" height="37.5326" fill="#828282"/>
<rect width="77.6437" height="17.477" transform="matrix(1 0 0 -1 124.865 211.251)" fill="#F2F2F2"/>
<rect x="65.8447" y="276.288" width="193.966" height="43.8357" fill="#3A62AB"/>
<ellipse cx="113.262" cy="132.891" rx="16.4742" ry="15.9012" fill="#888888"/>
<ellipse cx="212.107" cy="132.891" rx="16.4742" ry="15.9012" fill="#888888"/>
<ellipse cx="113.119" cy="133.034" rx="10.3143" ry="10.0278" fill="white"/>
<ellipse cx="211.964" cy="133.034" rx="10.3143" ry="10.0278" fill="white"/>
<rect x="248.35" y="147.359" width="15.4714" height="49.8524" transform="rotate(-90 248.35 147.359)" fill="#3A62AB"/>
<rect x="28.0258" y="147.359" width="15.4714" height="49.8524" transform="rotate(-90 28.0258 147.359)" fill="#3A62AB"/>
<rect x="154.949" y="29.6046" width="15.4714" height="49.8524" fill="#3A62AB"/>
<ellipse cx="162.828" cy="16.5686" rx="16.4742" ry="15.9012" fill="url(#paint0_linear)"/>
<ellipse cx="16.7086" cy="139.48" rx="16.4742" ry="15.9012" fill="url(#paint1_linear)"/>
<ellipse cx="305.795" cy="139.48" rx="16.4742" ry="15.9012" fill="url(#paint2_linear)"/>
<rect x="129.736" y="231.02" width="65.8969" height="7.73572" fill="#3A62AB"/>
<defs>
<linearGradient id="paint0_linear" x1="162.828" y1="0.667359" x2="162.828" y2="32.4698" gradientUnits="userSpaceOnUse">
<stop stop-color="#AEC4ED" stop-opacity="0.31"/>
<stop offset="1" stop-color="#6E96DF"/>
</linearGradient>
<linearGradient id="paint1_linear" x1="16.7086" y1="123.579" x2="16.7086" y2="155.382" gradientUnits="userSpaceOnUse">
<stop stop-color="#90ADE2"/>
<stop offset="1" stop-color="#6E96DF"/>
</linearGradient>
<linearGradient id="paint2_linear" x1="305.795" y1="123.579" x2="305.795" y2="155.382" gradientUnits="userSpaceOnUse">
<stop stop-color="#A9BEE5"/>
<stop offset="1" stop-color="#6E96DF"/>
</linearGradient>
</defs>
</svg>
