<svg width="224" height="212" viewBox="0 0 224 212" fill="none" xmlns="http://www.w3.org/2000/svg">
<rect x="42.2424" y="49.6437" width="140.808" height="105.425" rx="52.7127" fill="url(#paint0_linear)"/>
<rect x="71.8481" y="159.943" width="83.0405" height="23.6485" fill="#B5B5B5"/>
<rect width="48.9217" height="11.0119" transform="matrix(1 0 0 -1 88.8171 142.613)" fill="#434672"/>
<path d="M98.0237 133.767H128.532V140.627H98.0237V133.767Z" fill="#DADADA"/>
<rect x="51.6296" y="183.592" width="122.214" height="27.62" fill="url(#paint1_linear)"/>
<ellipse cx="81.506" cy="93.24" rx="10.3801" ry="10.019" fill="#DADADA"/>
<ellipse cx="143.786" cy="93.24" rx="10.3801" ry="10.019" fill="#DADADA"/>
<ellipse cx="81.4158" cy="93.3304" rx="6.49882" ry="6.3183" fill="#434672"/>
<ellipse cx="143.696" cy="93.3304" rx="6.49882" ry="6.3183" fill="#434672"/>
<rect x="183.05" y="102.357" width="9.02614" height="14.9834" transform="rotate(-90 183.05 102.357)" fill="url(#paint2_linear)"/>
<rect x="27.8005" y="102.357" width="9.74823" height="14.4418" transform="rotate(-90 27.8005 102.357)" fill="url(#paint3_linear)"/>
<rect x="107.772" y="28.1614" width="9.74823" height="21.4822" fill="url(#paint4_linear)"/>
<ellipse cx="112.737" cy="19.948" rx="10.3801" ry="10.019" fill="url(#paint5_linear)"/>
<ellipse cx="112.556" cy="10.019" rx="10.3801" ry="10.019" fill="url(#paint6_linear)"/>
<ellipse cx="20.6699" cy="97.3919" rx="10.3801" ry="10.019" fill="url(#paint7_linear)"/>
<ellipse cx="202.817" cy="97.3919" rx="10.3801" ry="10.019" fill="url(#paint8_linear)"/>
<rect x="91.886" y="155.069" width="41.5202" height="4.87411" fill="#668ED7"/>
<ellipse cx="112.556" cy="33.8481" rx="10.3801" ry="10.019" fill="url(#paint9_linear)"/>
<ellipse cx="213.107" cy="97.0311" rx="10.3801" ry="10.019" fill="url(#paint10_linear)"/>
<ellipse cx="10.3801" cy="97.0311" rx="10.3801" ry="10.019" fill="url(#paint11_linear)"/>
<defs>
<linearGradient id="paint0_linear" x1="112.646" y1="49.6437" x2="112.646" y2="155.069" gradientUnits="userSpaceOnUse">
<stop stop-color="#3A62AB"/>
<stop offset="1" stop-color="#6E96DF"/>
</linearGradient>
<linearGradient id="paint1_linear" x1="112.737" y1="183.592" x2="112.737" y2="211.212" gradientUnits="userSpaceOnUse">
<stop stop-color="#434672"/>
<stop offset="1" stop-color="#6E96DF"/>
</linearGradient>
<linearGradient id="paint2_linear" x1="187.563" y1="102.357" x2="187.563" y2="117.34" gradientUnits="userSpaceOnUse">
<stop stop-color="#3A62AB"/>
<stop offset="1" stop-color="#6E96DF"/>
</linearGradient>
<linearGradient id="paint3_linear" x1="32.6747" y1="102.357" x2="32.6747" y2="116.798" gradientUnits="userSpaceOnUse">
<stop stop-color="#3A62AB"/>
<stop offset="1" stop-color="#6E96DF"/>
</linearGradient>
<linearGradient id="paint4_linear" x1="112.646" y1="28.1614" x2="112.646" y2="49.6436" gradientUnits="userSpaceOnUse">
<stop stop-color="#3A62AB"/>
<stop offset="1" stop-color="#6E96DF"/>
</linearGradient>
<linearGradient id="paint5_linear" x1="112.737" y1="9.92896" x2="112.737" y2="29.967" gradientUnits="userSpaceOnUse">
<stop stop-color="#AEC4ED" stop-opacity="0.31"/>
<stop offset="1" stop-color="#6E96DF"/>
</linearGradient>
<linearGradient id="paint6_linear" x1="112.556" y1="0" x2="112.556" y2="20.038" gradientUnits="userSpaceOnUse">
<stop stop-color="#B5B5B5"/>
<stop offset="1" stop-color="#6E96DF"/>
</linearGradient>
<linearGradient id="paint7_linear" x1="20.6699" y1="87.3729" x2="20.6699" y2="107.411" gradientUnits="userSpaceOnUse">
<stop stop-color="#90ADE2"/>
<stop offset="1" stop-color="#6E96DF"/>
</linearGradient>
<linearGradient id="paint8_linear" x1="202.817" y1="87.3729" x2="202.817" y2="107.411" gradientUnits="userSpaceOnUse">
<stop stop-color="#A9BEE5"/>
<stop offset="1" stop-color="#6E96DF"/>
</linearGradient>
<linearGradient id="paint9_linear" x1="112.556" y1="23.8291" x2="112.556" y2="43.8671" gradientUnits="userSpaceOnUse">
<stop stop-color="#AEC4ED" stop-opacity="0.31"/>
<stop offset="1" stop-color="#6E96DF"/>
</linearGradient>
<linearGradient id="paint10_linear" x1="213.107" y1="87.0121" x2="213.107" y2="107.05" gradientUnits="userSpaceOnUse">
<stop stop-color="#B5B5B5"/>
<stop offset="1" stop-color="#6E96DF"/>
</linearGradient>
<linearGradient id="paint11_linear" x1="10.3801" y1="87.0121" x2="10.3801" y2="107.05" gradientUnits="userSpaceOnUse">
<stop stop-color="#B5B5B5"/>
<stop offset="1" stop-color="#6E96DF"/>
</linearGradient>
</defs>
</svg>
