<svg width="16" height="16" viewBox="0 0 16 16" fill="none" xmlns="http://www.w3.org/2000/svg">
<path d="M8 0C3.5888 0 0 3.5888 0 8C0 12.4112 3.5888 16 8 16C12.4112 16 16 12.4112 16 8C16 3.5888 12.4112 0 8 0ZM8 14.2977C4.52746 14.2977 1.7021 11.4727 1.7021 8C1.7021 4.5273 4.52746 1.70226 8 1.70226C11.4725 1.70226 14.2979 4.5273 14.2979 8C14.2979 11.4727 11.4725 14.2977 8 14.2977Z" fill="#777777"/>
<path d="M12.1693 7.75296H8.57405V3.43019C8.57405 3.06642 8.27912 2.77148 7.91534 2.77148C7.55157 2.77148 7.25664 3.06642 7.25664 3.43019V8.41166C7.25664 8.77543 7.55157 9.07037 7.91534 9.07037H12.1693C12.533 9.07037 12.828 8.77543 12.828 8.41166C12.828 8.04789 12.533 7.75296 12.1693 7.75296Z" fill="#777777"/>
</svg>
