<svg width="16" height="16" viewBox="0 0 16 16" fill="none" xmlns="http://www.w3.org/2000/svg">
<g clip-path="url(#clip0)">
<path d="M9.02693 11.0919C8.74216 11.2666 8.37746 11.3628 8.00001 11.3628C7.62255 11.3628 7.25786 11.2666 6.97308 11.0919L2.32383 8.24054C2.32383 8.24054 1.90419 7.98331 1.90419 8.56601C1.90419 9.22771 1.90419 11.2128 1.90419 11.2128C1.90419 11.2393 1.90419 11.3721 1.90419 11.4133C1.90419 12.9133 4.63334 14.5303 7.99989 14.5303C11.3664 14.5303 14.0956 12.9133 14.0956 11.4133C14.0956 11.3721 14.0956 11.2393 14.0956 11.2128C14.0956 11.2128 14.0956 9.10732 14.0956 8.40548C14.0956 7.93776 13.7973 8.1663 13.7973 8.1663L9.02693 11.0919Z" fill="#888888"/>
<path d="M15.7321 5.97243C16.0893 5.75335 16.0893 5.39482 15.7321 5.1757L8.64951 1.63398C8.29227 1.41489 7.70769 1.41489 7.35045 1.63398L0.26793 5.1757C-0.08931 5.39478 -0.08931 5.75331 0.26793 5.97243L7.35045 10.3162C7.70769 10.5353 8.29227 10.5353 8.64951 10.3162" fill="#888888"/>
<path d="M15.4392 12.411C15.4392 11.2116 15.4392 7.61362 15.4392 7.61362C15.4392 7.61362 15.4425 7.38639 15.3077 7.46142C15.1995 7.52162 14.9344 7.6694 14.841 7.75065C14.7331 7.84437 14.7574 8.05475 14.7574 8.05475C14.7574 8.05475 14.7574 11.3219 14.7574 12.411C14.7574 12.4728 14.7043 12.5023 14.679 12.5172C14.4341 12.6612 14.2695 12.9268 14.2695 13.2314C14.2695 13.6892 14.6405 14.0602 15.0983 14.0602C15.5561 14.0602 15.9271 13.6892 15.9271 13.2314C15.9271 12.9257 15.7613 12.6592 15.5149 12.5156C15.4904 12.5013 15.4392 12.4728 15.4392 12.411Z" fill="#888888"/>
</g>
<defs>
<clipPath id="clip0">
<rect width="16" height="16" fill="white"/>
</clipPath>
</defs>
</svg>
